<svg version="1.1" id="Layer_1" xmlns="http://www.w3.org/2000/svg" xmlns:xlink="http://www.w3.org/1999/xlink" x="0px" y="0px"
	 width="100%" viewBox="0 0 512 512" enable-background="new 0 0 512 512" xml:space="preserve">
<path opacity="0.000000" stroke="none" 
	d="
M1.000000,261.000000 
	C1.000000,174.369781 1.000000,87.739563 1.000000,1.054674 
	C171.558411,1.054674 342.116852,1.054674 513.000000,1.054674 
	C513.000000,87.355072 513.000000,173.710556 512.606445,260.384094 
	C512.136963,258.877289 512.317749,256.998230 511.945831,255.235886 
	C507.788300,235.537476 499.973511,217.440094 486.627228,202.255173 
	C468.952820,182.145813 447.112061,168.929321 420.293579,164.798477 
	C419.842834,162.424515 419.140686,160.224579 419.048920,157.999466 
	C418.466980,143.891754 414.155731,130.745010 408.480774,118.045982 
	C399.633820,98.248795 386.508911,81.769142 369.174255,68.623177 
	C349.951843,54.045578 328.259125,45.371521 304.412689,43.239296 
	C290.233002,41.971420 275.849487,42.451740 261.723450,45.925476 
	C239.108597,51.486694 219.364075,62.125179 202.458893,78.065208 
	C191.221863,88.660667 182.630280,101.220863 175.571548,114.885796 
	C174.617294,116.733170 174.113632,118.637642 170.951874,117.551567 
	C161.824112,114.416176 152.399490,114.064079 142.954849,116.019615 
	C131.231979,118.446854 121.080223,123.988724 112.930923,132.698792 
	C105.782776,140.338837 100.812775,149.490173 99.267654,159.846771 
	C98.620010,164.187836 95.985161,164.482162 93.439209,164.888107 
	C80.428947,166.962631 68.312653,171.341125 56.969925,177.992523 
	C32.001793,192.633926 14.674692,213.464493 6.018499,241.201172 
	C3.993195,247.690796 2.654557,254.394684 1.000000,261.000000 
z"/>
<path opacity="0.000000" stroke="none" 
	d="
M513.000000,290.000000 
	C513.000000,364.299530 513.000000,438.599091 513.000000,512.949341 
	C342.444763,512.949341 171.889481,512.949341 1.000000,512.949341 
	C1.000000,438.978912 1.000000,364.957306 1.390725,290.613068 
	C2.811365,301.452118 5.943484,312.061432 10.666680,322.160309 
	C18.132215,338.122772 28.530621,351.935516 42.432728,362.837494 
	C54.258522,372.111237 67.188995,379.307068 81.950615,383.130402 
	C91.478775,385.598175 100.978050,387.227020 110.838058,387.072632 
	C122.835075,386.884827 134.837280,387.027985 147.134888,387.027985 
	C147.134888,384.977753 147.134888,382.500000 147.584412,380.014709 
	C151.639069,380.011505 155.244186,380.015869 158.917267,380.483398 
	C158.985245,409.839935 158.985245,438.733337 158.985245,467.668915 
	C183.236023,467.668915 207.059464,467.668915 230.972229,467.668915 
	C230.972229,438.234497 230.972229,409.135345 231.437531,379.985962 
	C235.736542,379.870850 239.570221,379.806000 243.635605,379.993500 
	C246.916077,384.222809 249.874725,388.272858 253.030563,392.162933 
	C262.479919,403.810730 272.023499,415.382050 281.497009,427.010345 
	C288.384735,435.464691 295.180756,443.993927 302.089966,452.430573 
	C307.770050,459.366394 313.556610,466.215088 319.485565,473.329926 
	C344.927368,441.994812 370.089661,411.003937 395.702515,380.020050 
	C401.048309,380.024994 405.943604,380.022919 410.912415,380.429169 
	C411.459076,382.834686 411.932220,384.831848 412.435944,386.957916 
	C425.616608,385.774475 438.114746,382.295074 449.827271,376.529602 
	C464.520081,369.297058 477.447296,359.714905 487.861328,346.774261 
	C497.580811,334.696686 504.732666,321.415466 508.969177,306.561035 
	C510.526245,301.101562 511.668518,295.523804 513.000000,290.000000 
z"/>
<path fill="#010102" opacity="1.000000" stroke="none" 
	d="
M513.000000,289.531342 
	C511.668518,295.523804 510.526245,301.101562 508.969177,306.561035 
	C504.732666,321.415466 497.580811,334.696686 487.861328,346.774261 
	C477.447296,359.714905 464.520081,369.297058 449.827271,376.529602 
	C438.114746,382.295074 425.616608,385.774475 412.435944,386.957916 
	C411.932220,384.831848 411.459076,382.834686 411.062317,379.993469 
	C411.138702,376.712372 411.138702,374.275330 411.138702,371.872314 
	C468.040924,364.761932 496.274506,318.221558 497.846252,280.622833 
	C498.719940,259.723236 493.986237,240.264389 482.486664,222.776871 
	C464.129822,194.861328 437.552429,180.782852 404.085754,178.311554 
	C404.085754,173.246902 404.289948,168.754837 404.029388,164.289902 
	C403.758789,159.653076 403.422363,154.960541 402.455414,150.433182 
	C393.165649,106.937538 367.296844,77.760033 325.386780,63.386177 
	C308.563477,57.616306 290.950226,55.997944 272.790039,59.894386 
	C234.297806,67.111809 206.583664,87.998215 189.229126,123.067757 
	C186.758636,128.793182 184.496674,134.252365 182.702438,138.582687 
	C174.241196,135.912323 166.139954,133.355560 157.697021,130.629608 
	C132.209290,128.571136 110.801262,150.553604 113.730392,175.554474 
	C112.518959,176.821976 111.524475,178.175217 110.297409,178.436600 
	C106.944809,179.150742 103.494164,179.404587 99.646179,179.762238 
	C89.106102,182.831146 78.264786,184.557419 69.017479,189.355667 
	C7.018432,221.525818 -2.425510,303.035400 50.281853,348.913177 
	C64.526451,361.312012 81.155075,368.921051 100.546341,370.961609 
	C116.137115,371.543091 131.325577,372.012390 146.535416,372.482361 
	C146.744553,375.112793 146.939713,377.567535 147.134888,380.022278 
	C147.134888,382.500000 147.134888,384.977753 147.134888,387.027985 
	C134.837280,387.027985 122.835075,386.884827 110.838058,387.072632 
	C100.978050,387.227020 91.478775,385.598175 81.950615,383.130402 
	C67.188995,379.307068 54.258522,372.111237 42.432728,362.837494 
	C28.530621,351.935516 18.132215,338.122772 10.666680,322.160309 
	C5.943484,312.061432 2.811365,301.452118 1.390725,290.145203 
	C1.000000,280.645782 1.000000,271.291534 1.000000,261.468658 
	C2.654557,254.394684 3.993195,247.690796 6.018499,241.201172 
	C14.674692,213.464493 32.001793,192.633926 56.969925,177.992523 
	C68.312653,171.341125 80.428947,166.962631 93.439209,164.888107 
	C95.985161,164.482162 98.620010,164.187836 99.267654,159.846771 
	C100.812775,149.490173 105.782776,140.338837 112.930923,132.698792 
	C121.080223,123.988724 131.231979,118.446854 142.954849,116.019615 
	C152.399490,114.064079 161.824112,114.416176 170.951874,117.551567 
	C174.113632,118.637642 174.617294,116.733170 175.571548,114.885796 
	C182.630280,101.220863 191.221863,88.660667 202.458893,78.065208 
	C219.364075,62.125179 239.108597,51.486694 261.723450,45.925476 
	C275.849487,42.451740 290.233002,41.971420 304.412689,43.239296 
	C328.259125,45.371521 349.951843,54.045578 369.174255,68.623177 
	C386.508911,81.769142 399.633820,98.248795 408.480774,118.045982 
	C414.155731,130.745010 418.466980,143.891754 419.048920,157.999466 
	C419.140686,160.224579 419.842834,162.424515 420.293579,164.798477 
	C447.112061,168.929321 468.952820,182.145813 486.627228,202.255173 
	C499.973511,217.440094 507.788300,235.537476 511.945831,255.235886 
	C512.317749,256.998230 512.136963,258.877289 512.606445,260.851074 
	C513.000000,270.354218 513.000000,279.708466 513.000000,289.531342 
z"/>
<path fill="#BDDBFF" opacity="1.000000" stroke="none" 
	d="
M100.082352,179.840759 
	C103.494164,179.404587 106.944809,179.150742 110.297409,178.436600 
	C111.524475,178.175217 112.518959,176.821976 114.076294,175.484344 
	C119.884377,173.990005 125.206367,172.753647 130.597855,172.049255 
	C133.912186,171.616226 135.797302,171.085434 136.243607,166.965515 
	C137.901672,151.659607 144.855270,139.286621 158.038712,130.798813 
	C166.139954,133.355560 174.241196,135.912323 182.702438,138.582687 
	C184.496674,134.252365 186.758636,128.793182 189.653458,123.162048 
	C196.296021,124.757996 202.305725,126.525879 208.515289,128.352554 
	C209.343979,126.531639 210.327469,124.440788 211.253494,122.324791 
	C219.581345,103.295395 232.149643,87.500946 248.691422,75.118935 
	C256.359528,69.379143 265.019470,64.964417 273.229767,59.948982 
	C290.950226,55.997944 308.563477,57.616306 325.386780,63.386177 
	C367.296844,77.760033 393.165649,106.937538 402.455414,150.433182 
	C403.422363,154.960541 403.758789,159.653076 404.029388,164.289902 
	C404.289948,168.754837 404.085754,173.246902 404.085754,178.311554 
	C437.552429,180.782852 464.129822,194.861328 482.486664,222.776871 
	C493.986237,240.264389 498.719940,259.723236 497.846252,280.622833 
	C496.274506,318.221558 468.040924,364.761932 411.138702,371.872314 
	C411.138702,374.275330 411.138702,376.712372 410.988800,379.585144 
	C405.943604,380.022919 401.048309,380.024994 395.735718,379.692566 
	C397.071838,377.094238 398.825287,374.830383 401.156555,371.820465 
	C392.515472,371.820465 384.824860,371.820465 377.121094,371.363159 
	C377.107910,332.815369 377.107910,294.724884 377.107910,256.031006 
	C369.335144,256.031006 362.218018,256.031006 355.016174,255.581512 
	C354.931458,253.174179 354.931458,251.216309 354.931458,249.000183 
	C331.116547,249.000183 307.728088,249.000183 283.730591,249.000183 
	C283.730591,275.462463 283.730591,301.742432 283.480225,327.814117 
	C271.848602,313.785492 260.449402,299.979797 249.092133,286.139771 
	C241.127716,276.434296 233.220444,266.681915 224.901321,256.476532 
	C221.135117,260.618347 217.722565,264.371246 214.050598,267.885925 
	C207.471756,259.958344 201.152344,252.268921 194.617416,244.317261 
	C167.374832,277.723663 140.428513,310.766724 112.715286,344.750244 
	C128.940506,344.750244 143.813370,344.750244 158.849304,344.750244 
	C158.849304,356.812073 158.849304,368.416168 158.849304,380.020233 
	C155.244186,380.015869 151.639069,380.011505 147.584412,380.014709 
	C146.939713,377.567535 146.744553,375.112793 146.535416,372.482361 
	C131.325577,372.012390 116.137115,371.543091 100.312088,370.702026 
	C58.747948,349.166931 37.469154,316.063507 39.006111,269.477356 
	C39.865673,243.423462 50.419834,221.298950 68.158913,202.486801 
	C77.268272,192.826385 88.469421,186.020676 100.082352,179.840759 
M482.168549,306.576904 
	C486.620087,294.937469 488.552887,282.894958 487.975861,270.445526 
	C487.872375,268.213715 488.019165,265.877747 484.624817,266.272430 
	C481.995728,266.578125 479.359558,266.908691 476.718536,267.001678 
	C473.962585,267.098694 472.991516,268.382996 472.922089,271.074951 
	C472.802521,275.708679 472.615295,280.366272 472.023132,284.957947 
	C468.865967,309.439819 455.581604,327.276520 434.234253,338.541016 
	C424.919586,343.456146 414.058105,345.439972 403.373596,348.926514 
	C403.373596,352.286621 403.373596,356.854736 403.373596,362.322601 
	C408.992249,361.512970 414.197052,360.921539 419.340942,359.992828 
	C436.820618,356.837067 451.326294,347.919067 463.608490,335.583252 
	C471.594666,327.562225 477.862518,318.062134 482.168549,306.576904 
M468.832031,250.897598 
	C471.481628,259.501160 472.823883,259.854553 485.546143,254.748001 
	C483.935547,249.936569 482.306610,245.070267 480.563354,239.862488 
	C476.803467,241.494232 473.697418,243.000748 470.475983,244.196594 
	C467.117279,245.443420 466.663483,247.381943 468.832031,250.897598 
M460.920074,221.398682 
	C458.877686,223.717697 453.605835,224.333145 456.141785,229.128937 
	C460.739990,237.824615 462.481812,238.141769 470.780365,232.804901 
	C472.133575,231.934616 473.486176,231.063278 475.356293,229.859512 
	C473.055115,226.806656 470.681244,224.229050 468.979736,221.265427 
	C466.453827,216.865967 464.124573,217.674316 460.920074,221.398682 
z"/>
<path fill="#000102" opacity="1.000000" stroke="none" 
	d="
M283.730591,328.022400 
	C283.730591,301.742432 283.730591,275.462463 283.730591,249.000183 
	C307.728088,249.000183 331.116547,249.000183 354.931458,249.000183 
	C354.931458,251.216309 354.931458,253.174179 354.932373,256.039398 
	C354.933289,295.141693 354.933289,333.336609 354.933289,371.820465 
	C362.604095,371.820465 369.869202,371.820465 377.134277,371.820465 
	C384.824860,371.820465 392.515472,371.820465 401.156555,371.820465 
	C398.825287,374.830383 397.071838,377.094238 395.285187,379.685547 
	C370.089661,411.003937 344.927368,441.994812 319.485565,473.329926 
	C313.556610,466.215088 307.770050,459.366394 302.089966,452.430573 
	C295.180756,443.993927 288.384735,435.464691 281.497009,427.010345 
	C272.023499,415.382050 262.479919,403.810730 253.030563,392.162933 
	C249.874725,388.272858 246.916077,384.222809 243.517578,379.664673 
	C241.497940,376.921387 239.827988,374.759308 237.583054,371.852753 
	C243.352966,371.852753 248.139191,371.852753 253.399445,371.919983 
	C263.789429,371.987244 273.705414,371.987244 283.709778,371.987244 
	C283.709778,359.964447 283.709778,348.521545 283.794373,336.628723 
	C283.829498,333.459991 283.780029,330.741211 283.730591,328.022400 
M289.129761,387.006653 
	C282.797516,387.006653 276.465271,387.006653 269.072784,387.006653 
	C286.282013,408.092621 302.620026,428.111115 319.428009,448.705444 
	C322.864227,444.218353 325.947052,440.192810 329.654968,435.888367 
	C342.770142,419.856476 355.885315,403.824585 369.749329,386.877289 
	C359.084045,386.877289 349.574249,386.877289 339.723022,386.877289 
	C339.723022,345.594147 339.723022,304.884399 339.723022,264.048981 
	C333.246063,264.048981 327.133759,264.048981 320.099182,263.847107 
	C313.181122,263.847107 306.263062,263.847107 298.925598,263.847107 
	C298.925598,266.251190 298.925598,268.046021 298.925598,269.840881 
	C298.925598,293.619080 298.898956,317.397339 298.936371,341.175476 
	C298.956238,353.805939 299.087189,366.436218 298.986511,379.941650 
	C298.986511,382.182526 298.986511,384.423431 298.986511,387.128021 
	C295.595215,387.128021 292.831970,387.128021 289.129761,387.006653 
z"/>
<path fill="#010203" opacity="1.000000" stroke="none" 
	d="
M158.917267,380.483398 
	C158.849304,368.416168 158.849304,356.812073 158.849304,344.750244 
	C143.813370,344.750244 128.940506,344.750244 112.715286,344.750244 
	C140.428513,310.766724 167.374832,277.723663 194.617416,244.317261 
	C201.152344,252.268921 207.471756,259.958344 214.154800,268.170959 
	C220.307266,275.758728 226.082565,282.834412 231.887680,289.885590 
	C244.858414,305.640442 257.843994,321.383118 270.921997,337.454437 
	C272.639771,339.923431 274.259033,342.068756 276.451782,344.973846 
	C267.834045,344.973846 260.364502,344.973846 252.442276,344.872803 
	C244.766953,344.771759 237.544312,344.771759 230.095673,344.771759 
	C230.095673,355.362457 230.054184,365.151855 230.135071,374.940247 
	C230.149139,376.641083 230.680038,378.337646 230.972229,380.036163 
	C230.972229,409.135345 230.972229,438.234497 230.972229,467.668915 
	C207.059464,467.668915 183.236023,467.668915 158.985245,467.668915 
	C158.985245,438.733337 158.985245,409.839935 158.917267,380.483398 
M197.876236,452.962677 
	C203.486099,452.962677 209.095963,452.962677 215.262604,452.962677 
	C215.262604,411.642609 215.262604,370.813477 215.262604,329.447693 
	C225.175781,329.447693 234.527267,329.447693 244.888428,329.447693 
	C231.100357,312.722870 217.998352,296.830292 204.697754,280.318268 
	C201.439484,276.360199 198.181213,272.402161 194.619659,268.075684 
	C177.883301,288.595703 161.462250,308.729156 144.473053,329.559174 
	C152.293442,329.559174 159.036880,329.559174 166.712845,329.704163 
	C169.071045,329.704163 171.429245,329.704163 173.905090,329.704163 
	C174.063660,332.548431 174.187683,334.773102 174.144531,337.916504 
	C174.144531,376.113892 174.144531,414.311249 174.144531,452.829742 
	C182.068161,452.829742 189.504440,452.829742 197.876236,452.962677 
z"/>
<path fill="#58A3FC" opacity="1.000000" stroke="none" 
	d="
M231.437531,379.985962 
	C230.680038,378.337646 230.149139,376.641083 230.135071,374.940247 
	C230.054184,365.151855 230.095673,355.362457 230.095673,344.771759 
	C237.544312,344.771759 244.766953,344.771759 252.445221,345.342712 
	C252.909042,354.560059 252.917236,363.206390 252.925415,371.852753 
	C248.139191,371.852753 243.352966,371.852753 237.583054,371.852753 
	C239.827988,374.759308 241.497940,376.921387 243.285889,379.412292 
	C239.570221,379.806000 235.736542,379.870850 231.437531,379.985962 
z"/>
<path fill="#57A3FD" opacity="1.000000" stroke="none" 
	d="
M99.646179,179.762238 
	C88.469421,186.020676 77.268272,192.826385 68.158913,202.486801 
	C50.419834,221.298950 39.865673,243.423462 39.006111,269.477356 
	C37.469154,316.063507 58.747948,349.166931 99.909760,370.589813 
	C81.155075,368.921051 64.526451,361.312012 50.281853,348.913177 
	C-2.425510,303.035400 7.018432,221.525818 69.017479,189.355667 
	C78.264786,184.557419 89.106102,182.831146 99.646179,179.762238 
z"/>
<path fill="#57A2FC" opacity="1.000000" stroke="none" 
	d="
M272.790039,59.894382 
	C265.019470,64.964417 256.359528,69.379143 248.691422,75.118935 
	C232.149643,87.500946 219.581345,103.295395 211.253494,122.324791 
	C210.327469,124.440788 209.343979,126.531639 208.515289,128.352554 
	C202.305725,126.525879 196.296021,124.757996 189.862000,122.895813 
	C206.583664,87.998215 234.297806,67.111809 272.790039,59.894382 
z"/>
<path fill="#57A2FB" opacity="1.000000" stroke="none" 
	d="
M157.697021,130.629608 
	C144.855270,139.286621 137.901672,151.659607 136.243607,166.965515 
	C135.797302,171.085434 133.912186,171.616226 130.597855,172.049255 
	C125.206367,172.753647 119.884377,173.990005 114.187149,175.071976 
	C110.801262,150.553604 132.209290,128.571136 157.697021,130.629608 
z"/>
<path fill="#57A4FF" opacity="1.000000" stroke="none" 
	d="
M377.121094,371.363159 
	C369.869202,371.820465 362.604095,371.820465 354.933289,371.820465 
	C354.933289,333.336609 354.933289,295.141693 355.017090,256.488892 
	C362.218018,256.031006 369.335144,256.031006 377.107910,256.031006 
	C377.107910,294.724884 377.107910,332.815369 377.121094,371.363159 
z"/>
<path fill="#FEFEFF" opacity="1.000000" stroke="none" 
	d="
M482.022675,306.934387 
	C477.862518,318.062134 471.594666,327.562225 463.608490,335.583252 
	C451.326294,347.919067 436.820618,356.837067 419.340942,359.992828 
	C414.197052,360.921539 408.992249,361.512970 403.373596,362.322601 
	C403.373596,356.854736 403.373596,352.286621 403.373596,348.926514 
	C414.058105,345.439972 424.919586,343.456146 434.234253,338.541016 
	C455.581604,327.276520 468.865967,309.439819 472.023132,284.957947 
	C472.615295,280.366272 472.802521,275.708679 472.922089,271.074951 
	C472.991516,268.382996 473.962585,267.098694 476.718536,267.001678 
	C479.359558,266.908691 481.995728,266.578125 484.624817,266.272430 
	C488.019165,265.877747 487.872375,268.213715 487.975861,270.445526 
	C488.552887,282.894958 486.620087,294.937469 482.022675,306.934387 
z"/>
<path fill="#57A3FD" opacity="1.000000" stroke="none" 
	d="
M270.823517,337.130737 
	C257.843994,321.383118 244.858414,305.640442 231.887680,289.885590 
	C226.082565,282.834412 220.307266,275.758728 214.414230,268.409119 
	C217.722565,264.371246 221.135117,260.618347 224.901321,256.476532 
	C233.220444,266.681915 241.127716,276.434296 249.092133,286.139771 
	C260.449402,299.979797 271.848602,313.785492 283.480225,327.814117 
	C283.780029,330.741211 283.829498,333.459991 283.347839,336.629059 
	C278.819031,337.096466 274.821259,337.113586 270.823517,337.130737 
z"/>
<path fill="#FDFEFF" opacity="1.000000" stroke="none" 
	d="
M468.681030,250.547791 
	C466.663483,247.381943 467.117279,245.443420 470.475983,244.196594 
	C473.697418,243.000748 476.803467,241.494232 480.563354,239.862488 
	C482.306610,245.070267 483.935547,249.936569 485.546143,254.748001 
	C472.823883,259.854553 471.481628,259.501160 468.681030,250.547791 
z"/>
<path fill="#FDFEFF" opacity="1.000000" stroke="none" 
	d="
M461.197021,221.162872 
	C464.124573,217.674316 466.453827,216.865967 468.979736,221.265427 
	C470.681244,224.229050 473.055115,226.806656 475.356293,229.859512 
	C473.486176,231.063278 472.133575,231.934616 470.780365,232.804901 
	C462.481812,238.141769 460.739990,237.824615 456.141785,229.128937 
	C453.605835,224.333145 458.877686,223.717697 461.197021,221.162872 
z"/>
<path fill="#00ECCF" opacity="1.000000" stroke="none" 
	d="
M321.021454,264.048981 
	C327.133759,264.048981 333.246063,264.048981 339.723022,264.048981 
	C339.723022,304.884399 339.723022,345.594147 339.723022,386.877289 
	C349.574249,386.877289 359.084045,386.877289 369.749329,386.877289 
	C355.885315,403.824585 342.770142,419.856476 329.230621,435.699158 
	C320.846436,425.777405 312.826630,416.093048 304.948334,406.294891 
	C299.880859,399.992462 295.021454,393.522736 290.068756,387.128021 
	C292.831970,387.128021 295.595215,387.128021 298.986511,387.128021 
	C298.986511,384.423431 298.986511,382.182526 299.534424,379.515167 
	C306.856964,379.088684 313.631653,379.088684 321.073792,379.088684 
	C321.073792,375.706757 321.073792,372.933716 321.517517,370.093933 
	C324.537750,370.027161 327.114288,370.027161 329.655334,370.027161 
	C329.655334,356.687256 329.655334,344.129974 329.655334,331.291473 
	C326.630768,331.153412 323.851746,331.026581 321.069824,330.460144 
	C321.065887,327.108887 321.064850,324.197174 321.507446,321.207214 
	C324.526550,321.128906 327.102020,321.128906 329.657990,321.128906 
	C329.657990,315.732727 329.657990,311.148895 329.657990,306.287262 
	C326.628784,306.149689 323.850769,306.023529 321.069824,305.457916 
	C321.065887,302.107483 321.064850,299.196503 321.507446,296.207214 
	C324.526550,296.128906 327.102020,296.128906 329.657990,296.128906 
	C329.657990,290.732727 329.657990,286.148895 329.657990,281.287262 
	C326.628784,281.149689 323.850769,281.023499 321.069580,280.436279 
	C321.051453,274.666504 321.036438,269.357727 321.021454,264.048981 
z"/>
<path fill="#02AA96" opacity="1.000000" stroke="none" 
	d="
M321.073792,370.160706 
	C321.073792,372.933716 321.073792,375.706757 321.073792,379.088684 
	C313.631653,379.088684 306.856964,379.088684 299.625153,379.077637 
	C299.087189,366.436218 298.956238,353.805939 298.936371,341.175476 
	C298.898956,317.397339 298.925598,293.619080 298.925598,269.840881 
	C298.925598,268.046021 298.925598,266.251190 298.925598,263.847107 
	C306.263062,263.847107 313.181122,263.847107 320.560303,263.948059 
	C321.036438,269.357727 321.051453,274.666504 320.622681,280.512878 
	C318.582489,281.050476 316.986115,281.050476 315.282410,281.050476 
	C315.282410,286.346283 315.282410,291.146545 315.282410,295.931305 
	C317.462128,296.064850 319.262939,296.175140 321.063782,296.285461 
	C321.064850,299.196503 321.065887,302.107483 320.622925,305.534485 
	C318.582489,306.050476 316.986115,306.050476 315.282410,306.050476 
	C315.282410,311.346283 315.282410,316.146545 315.282410,320.931244 
	C317.462128,321.064819 319.262939,321.175171 321.063782,321.285492 
	C321.064850,324.197174 321.065887,327.108887 320.623108,330.537170 
	C318.577637,331.053741 316.975983,331.053741 315.272339,331.053741 
	C315.272339,344.332764 315.272339,357.098846 315.272339,369.861816 
	C317.449982,369.973999 319.261871,370.067352 321.073792,370.160706 
z"/>
<path fill="#00A994" opacity="1.000000" stroke="none" 
	d="
M289.599243,387.067322 
	C295.021454,393.522736 299.880859,399.992462 304.948334,406.294891 
	C312.826630,416.093048 320.846436,425.777405 328.918091,435.838623 
	C325.947052,440.192810 322.864227,444.218353 319.428009,448.705444 
	C302.620026,428.111115 286.282013,408.092621 269.072784,387.006653 
	C276.465271,387.006653 282.797516,387.006653 289.599243,387.067322 
z"/>
<path fill="#BBD9FD" opacity="1.000000" stroke="none" 
	d="
M270.921997,337.454437 
	C274.821259,337.113586 278.819031,337.096466 283.263275,337.078979 
	C283.709778,348.521545 283.709778,359.964447 283.709778,371.987244 
	C273.705414,371.987244 263.789429,371.987244 253.399445,371.919983 
	C252.917236,363.206390 252.909042,354.560059 252.897903,345.443787 
	C260.364502,344.973846 267.834045,344.973846 276.451782,344.973846 
	C274.259033,342.068756 272.639771,339.923431 270.921997,337.454437 
z"/>
<path fill="#57A3FE" opacity="1.000000" stroke="none" 
	d="
M204.896362,280.937683 
	C217.998352,296.830292 231.100357,312.722870 244.888428,329.447693 
	C234.527267,329.447693 225.175781,329.447693 215.262604,329.447693 
	C215.262604,370.813477 215.262604,411.642609 215.262604,452.962677 
	C209.095963,452.962677 203.486099,452.962677 197.407471,452.440002 
	C196.973068,446.586243 197.007446,441.255096 197.476746,435.829773 
	C200.184082,435.632202 202.456467,435.528839 204.706543,435.426483 
	C204.706543,420.387024 204.706543,405.838867 204.706543,391.182068 
	C201.862289,391.043427 199.384933,390.922668 196.911865,390.366028 
	C196.913300,387.019440 196.910461,384.108795 197.361618,381.125061 
	C200.085266,381.052002 202.354919,381.052002 204.703339,381.052002 
	C204.703339,375.689209 204.703339,370.985962 204.703339,366.179871 
	C201.857849,366.041901 199.382721,365.921906 196.911865,365.366028 
	C196.913300,362.019440 196.910461,359.108795 197.361633,356.125061 
	C200.085266,356.052002 202.354919,356.052002 204.703323,356.052002 
	C204.703323,350.691132 204.703323,345.985291 204.703323,341.179871 
	C201.858414,341.041901 199.382996,340.921844 196.908875,340.394562 
	C197.216415,336.960480 195.202194,337.010895 193.090988,337.020172 
	C186.831375,337.047729 180.571487,337.009979 174.311707,336.997772 
	C174.187683,334.773102 174.063660,332.548431 173.905090,329.704163 
	C171.429245,329.704163 169.071045,329.704163 166.337646,329.303558 
	C170.623001,322.952393 175.188049,316.923920 179.965378,311.068604 
	C188.206177,300.968262 196.578964,290.975555 204.896362,280.937683 
z"/>
<path fill="#016CEE" opacity="1.000000" stroke="none" 
	d="
M197.041824,435.923981 
	C197.007446,441.255096 196.973068,446.586243 196.939697,452.373535 
	C189.504440,452.829742 182.068161,452.829742 174.144531,452.829742 
	C174.144531,414.311249 174.144531,376.113892 174.228119,337.457153 
	C180.571487,337.009979 186.831375,337.047729 193.090988,337.020172 
	C195.202194,337.010895 197.216415,336.960480 196.471802,340.466003 
	C194.141846,341.035736 192.250305,341.126831 190.348373,341.218414 
	C190.348373,346.328033 190.348373,351.003815 190.348373,355.817474 
	C192.705505,355.954254 194.806564,356.076202 196.907623,356.198120 
	C196.910461,359.108795 196.913300,362.019440 196.474762,365.437439 
	C194.141861,366.035706 192.250320,366.126678 190.348373,366.218140 
	C190.348373,371.328003 190.348373,376.003784 190.348373,380.817474 
	C192.705505,380.954254 194.806564,381.076172 196.907623,381.198120 
	C196.910461,384.108795 196.913300,387.019440 196.474716,390.437439 
	C194.129852,391.034271 192.226395,391.123840 190.407654,391.209412 
	C190.407654,406.146637 190.407654,420.594238 190.407654,435.042267 
	C192.831284,435.364380 194.936554,435.644165 197.041824,435.923981 
z"/>
<path fill="#016CEC" opacity="1.000000" stroke="none" 
	d="
M204.797058,280.627991 
	C196.578964,290.975555 188.206177,300.968262 179.965378,311.068604 
	C175.188049,316.923920 170.623001,322.952393 165.871384,329.231079 
	C159.036880,329.559174 152.293442,329.559174 144.473053,329.559174 
	C161.462250,308.729156 177.883301,288.595703 194.619659,268.075684 
	C198.181213,272.402161 201.439484,276.360199 204.797058,280.627991 
z"/>
<path fill="#FBFFFE" opacity="1.000000" stroke="none" 
	d="
M321.517517,370.093933 
	C319.261871,370.067352 317.449982,369.973999 315.272339,369.861816 
	C315.272339,357.098846 315.272339,344.332764 315.272339,331.053741 
	C316.975983,331.053741 318.577637,331.053741 320.625977,330.976746 
	C323.851746,331.026581 326.630768,331.153412 329.655334,331.291473 
	C329.655334,344.129974 329.655334,356.687256 329.655334,370.027161 
	C327.114288,370.027161 324.537750,370.027161 321.517517,370.093933 
z"/>
<path fill="#FAFEFE" opacity="1.000000" stroke="none" 
	d="
M321.507446,296.207184 
	C319.262939,296.175140 317.462128,296.064850 315.282410,295.931305 
	C315.282410,291.146545 315.282410,286.346283 315.282410,281.050476 
	C316.986115,281.050476 318.582489,281.050476 320.625793,280.973907 
	C323.850769,281.023499 326.628784,281.149689 329.657990,281.287262 
	C329.657990,286.148895 329.657990,290.732727 329.657990,296.128906 
	C327.102020,296.128906 324.526550,296.128906 321.507446,296.207184 
z"/>
<path fill="#FAFEFE" opacity="1.000000" stroke="none" 
	d="
M321.507446,321.207214 
	C319.262939,321.175171 317.462128,321.064819 315.282410,320.931244 
	C315.282410,316.146545 315.282410,311.346283 315.282410,306.050476 
	C316.986115,306.050476 318.582489,306.050476 320.625793,305.973907 
	C323.850769,306.023529 326.628784,306.149689 329.657990,306.287262 
	C329.657990,311.148895 329.657990,315.732727 329.657990,321.128906 
	C327.102020,321.128906 324.526550,321.128906 321.507446,321.207214 
z"/>
<path fill="#FCFEFF" opacity="1.000000" stroke="none" 
	d="
M197.476746,435.829773 
	C194.936554,435.644165 192.831284,435.364380 190.407654,435.042267 
	C190.407654,420.594238 190.407654,406.146637 190.407654,391.209412 
	C192.226395,391.123840 194.129852,391.034271 196.470459,390.873322 
	C199.384933,390.922668 201.862289,391.043427 204.706543,391.182068 
	C204.706543,405.838867 204.706543,420.387024 204.706543,435.426483 
	C202.456467,435.528839 200.184082,435.632202 197.476746,435.829773 
z"/>
<path fill="#FCFEFF" opacity="1.000000" stroke="none" 
	d="
M197.361618,381.125061 
	C194.806564,381.076172 192.705505,380.954254 190.348373,380.817474 
	C190.348373,376.003784 190.348373,371.328003 190.348373,366.218140 
	C192.250320,366.126678 194.141861,366.035706 196.470490,365.873322 
	C199.382721,365.921906 201.857849,366.041901 204.703339,366.179871 
	C204.703339,370.985962 204.703339,375.689209 204.703339,381.052002 
	C202.354919,381.052002 200.085266,381.052002 197.361618,381.125061 
z"/>
<path fill="#FCFEFF" opacity="1.000000" stroke="none" 
	d="
M197.361618,356.125061 
	C194.806564,356.076202 192.705505,355.954254 190.348373,355.817474 
	C190.348373,351.003815 190.348373,346.328033 190.348373,341.218414 
	C192.250305,341.126831 194.141846,341.035736 196.470474,340.873230 
	C199.382996,340.921844 201.858414,341.041901 204.703323,341.179871 
	C204.703323,345.985291 204.703323,350.691132 204.703323,356.052002 
	C202.354919,356.052002 200.085266,356.052002 197.361618,356.125061 
z"/>
</svg>